# xmcd
#
# Track frame offsets:
#	150
#	20447
#	26200
#	44087
#	56867
#	64662
#	80062
#	90522
#	99930
#	113302
#	128742
#	139480
#	153912
#
# Disc length: 2333 seconds
#
# Revision: 0
# Processed by: cddbd v1.5.2PL0 Copyright (c) Steve Scherf et al.
# Submitted via: EasyCDDAExtractor 15.2.5.1
#
DISCID=ab091b0d
DTITLE=Various Artist - new shapes of sound (V7)
DYEAR=1900
DGENRE=
TTITLE0=vincent geminiani - liberalia
TTITLE1=karl heinz schafer - kidnapping
TTITLE2=harry belafonte - big boat up the river
TTITLE3=americo bellotto - berimbau
TTITLE4=silvio silvera - bim bom
TTITLE5=roger roger - take seven
TTITLE6=frank cunimondo trio - we've only just begun
TTITLE7=herb alpert - summertime
TTITLE8=cortex - l'enfant samba
TTITLE9=joel wanroogenbroek - samba para norma
TTITLE10=andre luterau - a starlett for you
TTITLE11=kjeli ohman - misturada
TTITLE12=cortex - tropeau bleu
EXTD=
EXTT0=
EXTT1=
EXTT2=
EXTT3=
EXTT4=
EXTT5=
EXTT6=
EXTT7=
EXTT8=
EXTT9=
EXTT10=
EXTT11=
EXTT12=
PLAYORDER=
